
<svg width="91px" height="79px" version="1.1" xmlns="http://www.w3.org/2000/svg" xmlns:xlink="http://www.w3.org/1999/xlink" viewBox="0 0 172 172"><defs><radialGradient cx="-315.41037" cy="108.88137" r="485.90806" gradientUnits="userSpaceOnUse" id="color-1"><stop offset="0" stop-color="#f4e9c3"></stop><stop offset="0.219" stop-color="#f8eecd"></stop><stop offset="0.644" stop-color="#fdf4dc"></stop><stop offset="1" stop-color="#fff6e1"></stop></radialGradient><radialGradient cx="-25.65487" cy="82.27244" r="39.26975" gradientUnits="userSpaceOnUse" id="color-2"><stop offset="0" stop-color="#f4e9c3"></stop><stop offset="0.219" stop-color="#f8eecd"></stop><stop offset="0.644" stop-color="#fdf4dc"></stop><stop offset="1" stop-color="#fff6e1"></stop></radialGradient><linearGradient x1="86" y1="8.0625" x2="86" y2="163.9375" gradientUnits="userSpaceOnUse" id="color-3"><stop offset="0" stop-color="#a4a4a4"></stop><stop offset="0.619" stop-color="#000000"></stop><stop offset="1" stop-color="#6f6f6f"></stop><stop offset="1" stop-color="#6f6f6f"></stop></linearGradient><linearGradient x1="86" y1="16.125" x2="86" y2="219.85631" gradientUnits="userSpaceOnUse" id="color-4"><stop offset="0" stop-color="#dff9ff"></stop><stop offset="0" stop-color="#dff9ff"></stop><stop offset="0.173" stop-color="#d8f8ff"></stop><stop offset="0.423" stop-color="#c5f4ff"></stop><stop offset="0.72" stop-color="#a5eeff"></stop><stop offset="1" stop-color="#81e7ff"></stop></linearGradient><linearGradient x1="107.5" y1="142.4375" x2="107.5" y2="94.61075" gradientUnits="userSpaceOnUse" id="color-5"><stop offset="0" stop-color="#89e4fa"></stop><stop offset="0.406" stop-color="#94e8fc"></stop><stop offset="1" stop-color="#acf0ff"></stop></linearGradient><linearGradient x1="72.5625" y1="104.8125" x2="72.5625" y2="16.125" gradientUnits="userSpaceOnUse" id="color-6"><stop offset="0" stop-color="#ecf9fd"></stop><stop offset="0.848" stop-color="#f2fdff"></stop><stop offset="1" stop-color="#f4feff"></stop></linearGradient><linearGradient x1="60.46875" y1="143.81081" x2="60.46875" y2="16.37494" gradientUnits="userSpaceOnUse" id="color-7"><stop offset="0" stop-color="#42d778"></stop><stop offset="0.996" stop-color="#34b171"></stop><stop offset="1" stop-color="#34b171"></stop></linearGradient><linearGradient x1="111.53125" y1="143.81081" x2="111.53125" y2="16.37494" gradientUnits="userSpaceOnUse" id="color-8"><stop offset="0" stop-color="#42d778"></stop><stop offset="0.996" stop-color="#34b171"></stop><stop offset="1" stop-color="#34b171"></stop></linearGradient><linearGradient x1="86" y1="33.56419" x2="86" y2="161.00006" gradientUnits="userSpaceOnUse" id="color-9"><stop offset="0" stop-color="#42d778"></stop><stop offset="0.996" stop-color="#34b171"></stop><stop offset="1" stop-color="#34b171"></stop></linearGradient><linearGradient x1="86" y1="33.56419" x2="86" y2="161.00006" gradientUnits="userSpaceOnUse" id="color-10"><stop offset="0" stop-color="#42d778"></stop><stop offset="0.996" stop-color="#34b171"></stop><stop offset="1" stop-color="#34b171"></stop></linearGradient></defs><g fill="none" fill-rule="nonzero" stroke="none" stroke-width="1" stroke-linecap="butt" stroke-linejoin="miter" stroke-miterlimit="10" stroke-dasharray="" stroke-dashoffset="0" font-family="none" font-weight="none" font-size="none" text-anchor="none" style="mix-blend-mode: normal"><path d="M0,172v-172h172v172z" fill="#f97b8b"></path><g><path d="M159.90625,88.6875h-11.82769c-2.63912,0 -5.08744,-1.78181 -5.55238,-4.38062c-0.05912,-0.33863 -0.08869,-0.67456 -0.08869,-1.00513c0.00538,-2.84875 2.22794,-5.17881 5.03369,-5.3535c4.07156,-0.25531 7.80987,-2.95087 8.33394,-6.99825c0.04569,-0.3655 0.06988,-0.72563 0.06988,-1.08306c-0.00538,-4.44781 -3.612,-8.05444 -8.0625,-8.05444h-13.4375v-18.65394c1.68237,-1.72269 4.00975,-2.81381 6.6005,-2.84606c0.00269,0 0.00538,0 0.00806,0c0.01075,0 0.01881,0 0.02688,0c0.00269,0 0.00806,0 0.01075,0c0.00806,0 0.01881,0 0.02687,0c0.00269,0 0.00538,0 0.01075,0c0.01344,0 0.02419,0 0.03494,0h4.84288c5.06325,0 9.60512,-3.76788 9.91956,-8.80962c0.00269,-0.02956 0.00269,-0.05913 0.00538,-0.08869c0.00806,-0.172 0.01344,-0.33863 0.01344,-0.50794c0,-5.19494 -4.21131,-9.40625 -9.40625,-9.40625h-20.15625h-16.125l10.75,10.75h-83.3125h-6.18662c-5.0955,0 -9.65888,3.81356 -9.92494,8.901c-0.00269,0.0645 -0.00538,0.12631 -0.00806,0.19081c-0.17469,5.33738 4.10112,9.72069 9.40087,9.72069h6.71875v21.5h-12.09375c-3.71144,0 -6.71875,3.00731 -6.71875,6.71875c0,3.71144 3.00731,6.71875 6.71875,6.71875v0c3.71144,0 6.71875,3.00731 6.71875,6.71875c0,3.71144 -3.00731,6.71875 -6.71875,6.71875h-14.32438c-4.36719,0 -8.28019,3.27069 -8.50862,7.62981c-0.00538,0.14513 -0.01075,0.29025 -0.01075,0.43269c0,4.4505 3.60931,8.0625 8.0625,8.0625h13.14994c2.67675,0 5.15731,1.83019 5.59,4.472c0.04837,0.30369 0.07256,0.602 0.07256,0.89494c0.00269,2.97238 -2.40263,5.38306 -5.375,5.38306h-2.23062c-4.3645,0 -8.28019,3.27069 -8.50594,7.62981c-0.00806,0.14512 -0.01344,0.29025 -0.01344,0.43269c0,4.4505 3.60931,8.0625 8.0625,8.0625h16.125v-2.6875h96.75h12.98063c4.21937,0 8.28556,-3.41581 8.50594,-7.62981c0.24456,-4.64938 -3.45344,-8.49519 -8.04906,-8.49519h-0.03494c-0.01612,0 -0.02956,0 -0.04569,0c-2.08819,0 -4.13606,-0.68263 -5.58463,-2.064c-0.45688,-0.43537 -0.85462,-0.94063 -1.17712,-1.51575c-3.4615,-6.22962 0.95406,-12.54525 6.84237,-12.54525h11.56163c5.0955,0 9.66156,-3.81625 9.92494,-8.90369c0.28219,-5.42337 -4.03125,-9.90881 -9.39281,-9.90881z" fill="url(#color-1)"></path><path d="M13.4375,79.28125c0,-3.71144 -3.00731,-6.71875 -6.71875,-6.71875c-3.71144,0 -6.71875,3.00731 -6.71875,6.71875c0,3.71144 3.00731,6.71875 6.71875,6.71875c3.71144,0 6.71875,-3.00731 6.71875,-6.71875z" fill="url(#color-2)"></path><path d="M120.9375,163.9375h-69.875c-7.42019,0 -13.4375,-6.01731 -13.4375,-13.4375v-129c0,-7.42019 6.01731,-13.4375 13.4375,-13.4375h69.875c7.42019,0 13.4375,6.01731 13.4375,13.4375v129c0,7.42019 -6.01731,13.4375 -13.4375,13.4375z" fill="url(#color-3)"></path><path d="M118.25,142.4375h-64.5c-4.45319,0 -8.0625,-3.60931 -8.0625,-8.0625v-110.1875c0,-4.45319 3.60931,-8.0625 8.0625,-8.0625h64.5c4.45319,0 8.0625,3.60931 8.0625,8.0625v110.1875c0,4.45319 -3.60931,8.0625 -8.0625,8.0625z" fill="url(#color-4)"></path><path d="M77.9375,147.8125h16.125c2.96969,0 5.375,2.40531 5.375,5.375v0c0,2.96969 -2.40531,5.375 -5.375,5.375h-16.125c-2.96969,0 -5.375,-2.40531 -5.375,-5.375v0c0,-2.96969 2.40531,-5.375 5.375,-5.375z" fill="#9e9e9e"></path><path d="M120.9375,102.125h-14.78125h-9.40625v13.4375h9.40625c3.71144,0 6.71875,3.00731 6.71875,6.71875c0,3.71144 -3.00731,6.71875 -6.71875,6.71875h-10.75c-3.71144,0 -6.71875,3.00731 -6.71875,6.71875c0,3.71144 3.00731,6.71875 6.71875,6.71875h22.84375c4.45319,0 8.0625,-3.60931 8.0625,-8.0625v-5.375v-13.4375v-13.4375z" fill="url(#color-5)"></path><path d="M76.59375,53.75h2.6875c3.71144,0 6.71875,-3.00731 6.71875,-6.71875v0c-10.75,0 -7.03856,-6.71875 -10.75,-6.71875h-5.375c-2.96969,0 -5.375,-2.40531 -5.375,-5.375v0c0,-2.96969 2.40531,-5.375 5.375,-5.375h22.84375c3.71144,0 6.71875,-3.00731 6.71875,-6.71875v0c0,-3.71144 -3.00731,-6.71875 -6.71875,-6.71875h-38.96875c-4.45319,0 -8.0625,3.60931 -8.0625,8.0625v80.625h28.21875c3.71144,0 6.71875,-3.00731 6.71875,-6.71875v0c0,-3.71144 -3.00731,-6.71875 -6.71875,-6.71875h-1.34375c-2.96969,0 -5.375,-2.40531 -5.375,-5.375v0c0,-2.96969 2.40531,-5.375 5.375,-5.375h12.09375c3.71144,0 6.71875,-3.00731 6.71875,-6.71875v0c0,-3.71144 -3.00731,-6.71875 -6.71875,-6.71875h-8.0625c-3.71144,0 -6.71875,-3.00731 -6.71875,-6.71875v0c0,-3.71144 3.00731,-6.71875 6.71875,-6.71875z" fill="url(#color-6)"></path><path d="M60.46875,88.6875c-2.22525,0 -4.03125,-1.806 -4.03125,-4.03125v-18.8125c0,-2.22525 1.806,-4.03125 4.03125,-4.03125c2.22525,0 4.03125,1.806 4.03125,4.03125v18.8125c0,2.22525 -1.806,4.03125 -4.03125,4.03125z" fill="url(#color-7)"></path><path d="M111.53125,88.6875c-2.22525,0 -4.03125,-1.806 -4.03125,-4.03125v-18.8125c0,-2.22525 1.806,-4.03125 4.03125,-4.03125c2.22525,0 4.03125,1.806 4.03125,4.03125v18.8125c0,2.22525 -1.806,4.03125 -4.03125,4.03125z" fill="url(#color-8)"></path><path d="M67.1875,64.5v29.5625c0,2.96969 2.40531,5.375 5.375,5.375v12.09375c0,2.22525 1.806,4.03125 4.03125,4.03125c2.22525,0 4.03125,-1.806 4.03125,-4.03125v-12.09375h10.75v12.09375c0,2.22525 1.806,4.03125 4.03125,4.03125c2.22525,0 4.03125,-1.806 4.03125,-4.03125v-12.09375c2.96969,0 5.375,-2.40531 5.375,-5.375v-29.5625z" fill="url(#color-9)"></path><path d="M67.1875,61.8125h37.625c0,-6.39894 -3.20081,-12.04269 -8.084,-15.44237l2.42681,-4.85362c0.66381,-1.32763 0.12631,-2.94281 -1.20131,-3.60663c-1.32763,-0.65844 -2.94281,-0.12631 -3.60663,1.20131l-2.42681,4.85362c-1.86244,-0.61812 -3.85119,-0.96481 -5.92056,-0.96481c-2.06938,0 -4.05544,0.34669 -5.92056,0.96481l-2.4295,-4.85631c-0.6665,-1.32763 -2.279,-1.85975 -3.60662,-1.20131c-1.32763,0.66381 -1.86512,2.279 -1.20131,3.60662l2.42681,4.85631c-4.87781,3.397 -8.08131,9.04344 -8.08131,15.44237z" fill="url(#color-10)"></path></g></g></svg>